<svg width="104" height="19" viewBox="0 0 104 19" fill="none" xmlns="http://www.w3.org/2000/svg">
<path d="M0.650812 18V0.864999H12.3808V3.97H4.21581V8.317H11.2308V11.422H4.21581V18H0.650812ZM17.3122 18.276C16.4075 18.276 15.6255 18.1303 14.9662 17.839C14.3068 17.5477 13.8008 17.1337 13.4482 16.597C13.0955 16.045 12.9192 15.3933 12.9192 14.642C12.9192 13.9367 13.0802 13.3157 13.4022 12.779C13.7242 12.227 14.2148 11.767 14.8742 11.399C15.5488 11.031 16.3845 10.7703 17.3812 10.617L21.2222 9.996V12.526L18.0022 13.101C17.5115 13.193 17.1358 13.354 16.8752 13.584C16.6145 13.7987 16.4842 14.113 16.4842 14.527C16.4842 14.9103 16.6298 15.2093 16.9212 15.424C17.2125 15.6387 17.5728 15.746 18.0022 15.746C18.5695 15.746 19.0678 15.6233 19.4972 15.378C19.9265 15.1327 20.2562 14.803 20.4862 14.389C20.7315 13.9597 20.8542 13.492 20.8542 12.986V9.72C20.8542 9.24467 20.6625 8.846 20.2792 8.524C19.9112 8.202 19.4052 8.041 18.7612 8.041C18.1478 8.041 17.6035 8.20967 17.1282 8.547C16.6682 8.88433 16.3308 9.329 16.1162 9.881L13.3562 8.57C13.6015 7.86467 13.9925 7.259 14.5292 6.753C15.0658 6.247 15.7098 5.856 16.4612 5.58C17.2125 5.304 18.0328 5.166 18.9222 5.166C19.9802 5.166 20.9155 5.35767 21.7282 5.741C22.5408 6.12433 23.1695 6.661 23.6142 7.351C24.0742 8.02567 24.3042 8.81533 24.3042 9.72V18H21.0842V15.976L21.8662 15.838C21.4982 16.39 21.0918 16.85 20.6472 17.218C20.2025 17.5707 19.7042 17.8313 19.1522 18C18.6002 18.184 17.9868 18.276 17.3122 18.276Z" fill="#364A7A"/>
<path d="M33.8723 18.276C33.0137 18.276 32.2163 18.1227 31.4803 17.816C30.7597 17.494 30.177 17.0263 29.7323 16.413L30.0543 15.7V18H26.8343V0.588999H30.2843V7.834L29.7553 7.144C30.1693 6.51533 30.729 6.03233 31.4343 5.695C32.155 5.34233 32.9753 5.166 33.8953 5.166C35.0913 5.166 36.1723 5.45733 37.1383 6.04C38.1043 6.62267 38.871 7.41233 39.4383 8.409C40.0057 9.39033 40.2893 10.4943 40.2893 11.721C40.2893 12.9323 40.0057 14.0363 39.4383 15.033C38.8863 16.0297 38.1273 16.8193 37.1613 17.402C36.1953 17.9847 35.099 18.276 33.8723 18.276ZM33.4583 15.171C34.1023 15.171 34.6697 15.0253 35.1603 14.734C35.651 14.4427 36.0343 14.0363 36.3103 13.515C36.5863 12.9937 36.7243 12.3957 36.7243 11.721C36.7243 11.0463 36.5863 10.456 36.3103 9.95C36.0343 9.42867 35.651 9.02233 35.1603 8.731C34.6697 8.42433 34.1023 8.271 33.4583 8.271C32.845 8.271 32.293 8.41667 31.8023 8.708C31.327 8.99933 30.9513 9.40567 30.6753 9.927C30.4147 10.4483 30.2843 11.0463 30.2843 11.721C30.2843 12.3957 30.4147 12.9937 30.6753 13.515C30.9513 14.0363 31.327 14.4427 31.8023 14.734C32.293 15.0253 32.845 15.171 33.4583 15.171ZM45.6449 18V3.97H41.2979V0.864999H53.4879V3.97H49.2099V18H45.6449ZM53.6302 18V5.442H56.8502V8.455L56.6202 8.018C56.8962 6.96 57.3486 6.247 57.9772 5.879C58.6212 5.49567 59.3802 5.304 60.2542 5.304H60.9902V8.294H59.9092C59.0659 8.294 58.3836 8.55467 57.8622 9.076C57.3409 9.582 57.0802 10.3027 57.0802 11.238V18H53.6302ZM66.3893 18.276C65.4846 18.276 64.7026 18.1303 64.0433 17.839C63.384 17.5477 62.878 17.1337 62.5253 16.597C62.1726 16.045 61.9963 15.3933 61.9963 14.642C61.9963 13.9367 62.1573 13.3157 62.4793 12.779C62.8013 12.227 63.292 11.767 63.9513 11.399C64.626 11.031 65.4616 10.7703 66.4583 10.617L70.2993 9.996V12.526L67.0793 13.101C66.5886 13.193 66.213 13.354 65.9523 13.584C65.6916 13.7987 65.5613 14.113 65.5613 14.527C65.5613 14.9103 65.707 15.2093 65.9983 15.424C66.2896 15.6387 66.65 15.746 67.0793 15.746C67.6466 15.746 68.145 15.6233 68.5743 15.378C69.0036 15.1327 69.3333 14.803 69.5633 14.389C69.8086 13.9597 69.9313 13.492 69.9313 12.986V9.72C69.9313 9.24467 69.7396 8.846 69.3563 8.524C68.9883 8.202 68.4823 8.041 67.8383 8.041C67.225 8.041 66.6806 8.20967 66.2053 8.547C65.7453 8.88433 65.408 9.329 65.1933 9.881L62.4333 8.57C62.6786 7.86467 63.0696 7.259 63.6063 6.753C64.143 6.247 64.787 5.856 65.5383 5.58C66.2896 5.304 67.11 5.166 67.9993 5.166C69.0573 5.166 69.9926 5.35767 70.8053 5.741C71.618 6.12433 72.2466 6.661 72.6913 7.351C73.1513 8.02567 73.3813 8.81533 73.3813 9.72V18H70.1613V15.976L70.9433 15.838C70.5753 16.39 70.169 16.85 69.7243 17.218C69.2796 17.5707 68.7813 17.8313 68.2293 18C67.6773 18.184 67.064 18.276 66.3893 18.276ZM81.8225 18.276C80.5958 18.276 79.4995 17.9847 78.5335 17.402C77.5675 16.8193 76.8008 16.0297 76.2335 15.033C75.6815 14.0363 75.4055 12.9323 75.4055 11.721C75.4055 10.4943 75.6892 9.39033 76.2565 8.409C76.8238 7.41233 77.5905 6.62267 78.5565 6.04C79.5225 5.45733 80.6035 5.166 81.7995 5.166C82.7195 5.166 83.5322 5.34233 84.2375 5.695C84.9582 6.03233 85.5255 6.51533 85.9395 7.144L85.4105 7.834V0.588999H88.8605V18H85.6405V15.7L85.9625 16.413C85.5332 17.0263 84.9505 17.494 84.2145 17.816C83.4785 18.1227 82.6812 18.276 81.8225 18.276ZM82.2365 15.171C82.8652 15.171 83.4172 15.0253 83.8925 14.734C84.3678 14.4427 84.7358 14.0363 84.9965 13.515C85.2725 12.9937 85.4105 12.3957 85.4105 11.721C85.4105 11.0463 85.2725 10.4483 84.9965 9.927C84.7358 9.40567 84.3678 8.99933 83.8925 8.708C83.4172 8.41667 82.8652 8.271 82.2365 8.271C81.6078 8.271 81.0405 8.42433 80.5345 8.731C80.0438 9.02233 79.6605 9.42867 79.3845 9.95C79.1085 10.456 78.9705 11.0463 78.9705 11.721C78.9705 12.3957 79.1085 12.9937 79.3845 13.515C79.6605 14.0363 80.0438 14.4427 80.5345 14.734C81.0405 15.0253 81.6078 15.171 82.2365 15.171ZM97.4361 18.276C96.1021 18.276 94.9444 17.9847 93.9631 17.402C92.9817 16.804 92.2227 16.0067 91.6861 15.01C91.1494 14.0133 90.8811 12.9093 90.8811 11.698C90.8811 10.4407 91.1571 9.32133 91.7091 8.34C92.2764 7.35867 93.0354 6.58433 93.9861 6.017C94.9367 5.44967 96.0101 5.166 97.2061 5.166C98.2027 5.166 99.0844 5.327 99.8511 5.649C100.618 5.95567 101.262 6.39267 101.783 6.96C102.32 7.52733 102.726 8.18667 103.002 8.938C103.278 9.674 103.416 10.479 103.416 11.353C103.416 11.5983 103.401 11.8437 103.37 12.089C103.355 12.319 103.316 12.5183 103.255 12.687H93.8481V10.157H101.3L99.6671 11.353C99.8204 10.6937 99.8127 10.111 99.6441 9.605C99.4754 9.08367 99.1764 8.67733 98.7471 8.386C98.3331 8.07933 97.8194 7.926 97.2061 7.926C96.6081 7.926 96.0944 8.07167 95.6651 8.363C95.2357 8.65433 94.9137 9.08367 94.6991 9.651C94.4844 10.2183 94.4001 10.9083 94.4461 11.721C94.3847 12.4263 94.4691 13.0473 94.6991 13.584C94.9291 14.1207 95.2817 14.5423 95.7571 14.849C96.2324 15.1403 96.8074 15.286 97.4821 15.286C98.0954 15.286 98.6167 15.1633 99.0461 14.918C99.4907 14.6727 99.8357 14.3353 100.081 13.906L102.841 15.217C102.596 15.8303 102.205 16.367 101.668 16.827C101.147 17.287 100.526 17.6473 99.8051 17.908C99.0844 18.1533 98.2947 18.276 97.4361 18.276Z" fill="url(#paint0_linear_1249_750)"/>
<defs>
<linearGradient id="paint0_linear_1249_750" x1="29.1" y1="8.5" x2="105" y2="8.5" gradientUnits="userSpaceOnUse">
<stop stop-color="#44BCFF"/>
<stop offset="1" stop-color="#3160D0"/>
</linearGradient>
</defs>
</svg>
